<svg width="349" height="553" viewBox="0 0 349 553" fill="none" xmlns="http://www.w3.org/2000/svg">
<g filter="url(#filter0_d)">
<ellipse cx="174.5" cy="275" rx="170.5" ry="268" fill="#FFD747"/>
<ellipse cx="174.5" cy="275" rx="170.5" ry="268" fill="url(#paint0_linear)"/>
</g>
<g filter="url(#filter1_i)">
<ellipse cx="174.5" cy="275" rx="160.5" ry="258" fill="#E0E0E0"/>
<ellipse cx="174.5" cy="275" rx="160.5" ry="258" fill="url(#paint1_diamond)"/>
</g>
<g filter="url(#filter2_dii)">
<path d="M148.949 12.1801C151.286 10.8729 154.213 11.9804 153.504 14.5626C152.996 16.4094 151.881 18.4531 150.223 20.5769C148.564 22.7008 146.395 24.8632 143.838 26.9406C141.281 29.0181 138.387 30.97 135.32 32.6849C132.254 34.3997 129.076 35.844 125.967 36.9351C122.859 38.0263 119.881 38.743 117.203 39.0444C114.525 39.3457 112.2 39.2258 110.361 38.6915C107.789 37.9443 108.378 34.8704 110.715 33.5633L112.229 32.7165C113.73 31.877 115.768 32.4769 117.419 32.9568C118.592 33.2974 120.074 33.3739 121.781 33.1818C123.488 32.9897 125.387 32.5327 127.368 31.8371C129.35 31.1415 131.376 30.2208 133.331 29.1276C135.286 28.0344 137.131 26.79 138.761 25.4656C140.391 24.1412 141.774 22.7627 142.831 21.4088C143.888 20.0548 144.599 18.752 144.923 17.5746C145.378 15.9162 145.934 13.8663 147.435 13.0268L148.949 12.1801Z" fill="#FFD747"/>
<path d="M148.949 12.1801C151.286 10.8729 154.213 11.9804 153.504 14.5626C152.996 16.4094 151.881 18.4531 150.223 20.5769C148.564 22.7008 146.395 24.8632 143.838 26.9406C141.281 29.0181 138.387 30.97 135.32 32.6849C132.254 34.3997 129.076 35.844 125.967 36.9351C122.859 38.0263 119.881 38.743 117.203 39.0444C114.525 39.3457 112.2 39.2258 110.361 38.6915C107.789 37.9443 108.378 34.8704 110.715 33.5633L112.229 32.7165C113.73 31.877 115.768 32.4769 117.419 32.9568C118.592 33.2974 120.074 33.3739 121.781 33.1818C123.488 32.9897 125.387 32.5327 127.368 31.8371C129.35 31.1415 131.376 30.2208 133.331 29.1276C135.286 28.0344 137.131 26.79 138.761 25.4656C140.391 24.1412 141.774 22.7627 142.831 21.4088C143.888 20.0548 144.599 18.752 144.923 17.5746C145.378 15.9162 145.934 13.8663 147.435 13.0268L148.949 12.1801Z" fill="url(#paint2_linear)"/>
<path d="M101.377 44.2454C99.9864 46.0664 97.2363 46.4983 96.3799 44.373C95.8609 43.0849 95.709 41.6174 95.9382 40.1052C96.1673 38.5929 96.7702 37.0843 97.6915 35.7177C98.6128 34.3511 99.823 33.1704 101.211 32.2838C102.599 31.3972 104.121 30.8332 105.636 30.6434C107.151 30.4536 108.612 30.6442 109.884 31.1977C111.156 31.7511 112.199 32.6497 112.916 33.8111C112.942 33.8525 112.967 33.8943 112.992 33.9363C114.197 35.9845 112.315 38.1714 109.983 38.6266L106.776 39.2525C105.576 39.4868 104.503 40.153 103.76 41.1251L101.377 44.2454Z" fill="#FFD747"/>
<path d="M101.377 44.2454C99.9864 46.0664 97.2363 46.4983 96.3799 44.373C95.8609 43.0849 95.709 41.6174 95.9382 40.1052C96.1673 38.5929 96.7702 37.0843 97.6915 35.7177C98.6128 34.3511 99.823 33.1704 101.211 32.2838C102.599 31.3972 104.121 30.8332 105.636 30.6434C107.151 30.4536 108.612 30.6442 109.884 31.1977C111.156 31.7511 112.199 32.6497 112.916 33.8111C112.942 33.8525 112.967 33.8943 112.992 33.9363C114.197 35.9845 112.315 38.1714 109.983 38.6266L106.776 39.2525C105.576 39.4868 104.503 40.153 103.76 41.1251L101.377 44.2454Z" fill="url(#paint3_linear)"/>
<path d="M200.512 12.1801C198.175 10.8729 195.248 11.9804 195.957 14.5626C196.465 16.4094 197.579 18.4531 199.238 20.5769C200.896 22.7008 203.066 24.8632 205.623 26.9406C208.18 29.0181 211.074 30.97 214.14 32.6849C217.207 34.3997 220.385 35.844 223.493 36.9351C226.602 38.0263 229.58 38.743 232.258 39.0444C234.936 39.3457 237.261 39.2258 239.1 38.6915C241.671 37.9443 241.083 34.8704 238.746 33.5633L237.232 32.7165C235.73 31.877 233.693 32.4769 232.042 32.9568C230.869 33.2974 229.387 33.3739 227.68 33.1818C225.973 32.9897 224.074 32.5327 222.092 31.8371C220.111 31.1415 218.085 30.2208 216.13 29.1276C214.175 28.0344 212.33 26.79 210.7 25.4656C209.07 24.1412 207.687 22.7627 206.63 21.4088C205.572 20.0548 204.862 18.752 204.538 17.5746C204.082 15.9162 203.527 13.8663 202.026 13.0268L200.512 12.1801Z" fill="#FFD747"/>
<path d="M200.512 12.1801C198.175 10.8729 195.248 11.9804 195.957 14.5626C196.465 16.4094 197.579 18.4531 199.238 20.5769C200.896 22.7008 203.066 24.8632 205.623 26.9406C208.18 29.0181 211.074 30.97 214.14 32.6849C217.207 34.3997 220.385 35.844 223.493 36.9351C226.602 38.0263 229.58 38.743 232.258 39.0444C234.936 39.3457 237.261 39.2258 239.1 38.6915C241.671 37.9443 241.083 34.8704 238.746 33.5633L237.232 32.7165C235.73 31.877 233.693 32.4769 232.042 32.9568C230.869 33.2974 229.387 33.3739 227.68 33.1818C225.973 32.9897 224.074 32.5327 222.092 31.8371C220.111 31.1415 218.085 30.2208 216.13 29.1276C214.175 28.0344 212.33 26.79 210.7 25.4656C209.07 24.1412 207.687 22.7627 206.63 21.4088C205.572 20.0548 204.862 18.752 204.538 17.5746C204.082 15.9162 203.527 13.8663 202.026 13.0268L200.512 12.1801Z" fill="url(#paint4_linear)"/>
<path d="M248.084 44.2454C249.474 46.0664 252.225 46.4983 253.081 44.373C253.6 43.0849 253.752 41.6174 253.523 40.1052C253.294 38.5929 252.691 37.0843 251.769 35.7177C250.848 34.3511 249.638 33.1704 248.25 32.2838C246.862 31.3972 245.34 30.8332 243.825 30.6434C242.309 30.4536 240.849 30.6442 239.577 31.1977C238.305 31.7511 237.262 32.6497 236.545 33.8111C236.519 33.8525 236.494 33.8943 236.469 33.9363C235.264 35.9845 237.146 38.1714 239.478 38.6266L242.685 39.2525C243.885 39.4868 244.958 40.153 245.701 41.1251L248.084 44.2454Z" fill="#FFD747"/>
<path d="M248.084 44.2454C249.474 46.0664 252.225 46.4983 253.081 44.373C253.6 43.0849 253.752 41.6174 253.523 40.1052C253.294 38.5929 252.691 37.0843 251.769 35.7177C250.848 34.3511 249.638 33.1704 248.25 32.2838C246.862 31.3972 245.34 30.8332 243.825 30.6434C242.309 30.4536 240.849 30.6442 239.577 31.1977C238.305 31.7511 237.262 32.6497 236.545 33.8111C236.519 33.8525 236.494 33.8943 236.469 33.9363C235.264 35.9845 237.146 38.1714 239.478 38.6266L242.685 39.2525C243.885 39.4868 244.958 40.153 245.701 41.1251L248.084 44.2454Z" fill="url(#paint5_linear)"/>
<path d="M206 25.5C208.761 25.5 211.063 23.1831 210 20.6346C209.577 19.6203 209.021 18.6241 208.336 17.655C206.577 15.1678 203.999 12.9079 200.749 11.0043C197.499 9.10071 193.64 7.59069 189.394 6.56047C185.148 5.53025 180.596 5 176 5C171.404 5 166.852 5.53025 162.606 6.56047C158.36 7.59069 154.501 9.10071 151.251 11.0043C148.001 12.9079 145.423 15.1678 143.664 17.655C142.979 18.6241 142.423 19.6203 142 20.6346C140.937 23.1831 143.239 25.5 146 25.5H146.541C149.303 25.5 151.501 23.1268 152.92 20.7578C153.069 20.5089 153.23 20.2621 153.403 20.0177C154.632 18.2796 156.434 16.7004 158.705 15.3701C160.976 14.0398 163.673 12.9845 166.64 12.2646C169.607 11.5447 172.788 11.1741 176 11.1741C179.212 11.1741 182.393 11.5447 185.36 12.2646C188.327 12.9845 191.024 14.0398 193.295 15.3701C195.566 16.7003 197.368 18.2796 198.597 20.0177C198.77 20.2621 198.931 20.5089 199.08 20.7578C200.499 23.1268 202.697 25.5 205.459 25.5H206Z" fill="#FFD747"/>
<path d="M206 25.5C208.761 25.5 211.063 23.1831 210 20.6346C209.577 19.6203 209.021 18.6241 208.336 17.655C206.577 15.1678 203.999 12.9079 200.749 11.0043C197.499 9.10071 193.64 7.59069 189.394 6.56047C185.148 5.53025 180.596 5 176 5C171.404 5 166.852 5.53025 162.606 6.56047C158.36 7.59069 154.501 9.10071 151.251 11.0043C148.001 12.9079 145.423 15.1678 143.664 17.655C142.979 18.6241 142.423 19.6203 142 20.6346C140.937 23.1831 143.239 25.5 146 25.5H146.541C149.303 25.5 151.501 23.1268 152.92 20.7578C153.069 20.5089 153.23 20.2621 153.403 20.0177C154.632 18.2796 156.434 16.7004 158.705 15.3701C160.976 14.0398 163.673 12.9845 166.64 12.2646C169.607 11.5447 172.788 11.1741 176 11.1741C179.212 11.1741 182.393 11.5447 185.36 12.2646C188.327 12.9845 191.024 14.0398 193.295 15.3701C195.566 16.7003 197.368 18.2796 198.597 20.0177C198.77 20.2621 198.931 20.5089 199.08 20.7578C200.499 23.1268 202.697 25.5 205.459 25.5H206Z" fill="url(#paint6_linear)"/>
</g>
<g filter="url(#filter3_dii)">
<path d="M199.512 537.247C197.175 538.554 194.247 537.446 194.957 534.864C195.465 533.017 196.579 530.974 198.238 528.85C199.896 526.726 202.066 524.564 204.623 522.486C207.18 520.409 210.074 518.457 213.14 516.742C216.207 515.027 219.385 513.583 222.493 512.492C225.602 511.4 228.58 510.684 231.258 510.382C233.936 510.081 236.261 510.201 238.1 510.735C240.671 511.482 240.083 514.556 237.745 515.864L236.232 516.71C234.73 517.55 232.693 516.95 231.042 516.47C229.869 516.129 228.387 516.053 226.68 516.245C224.973 516.437 223.074 516.894 221.092 517.59C219.111 518.285 217.085 519.206 215.13 520.299C213.175 521.392 211.33 522.637 209.7 523.961C208.07 525.286 206.687 526.664 205.63 528.018C204.572 529.372 203.862 530.675 203.538 531.852C203.082 533.511 202.527 535.56 201.026 536.4L199.512 537.247Z" fill="#FFD747"/>
<path d="M199.512 537.247C197.175 538.554 194.247 537.446 194.957 534.864C195.465 533.017 196.579 530.974 198.238 528.85C199.896 526.726 202.066 524.564 204.623 522.486C207.18 520.409 210.074 518.457 213.14 516.742C216.207 515.027 219.385 513.583 222.493 512.492C225.602 511.4 228.58 510.684 231.258 510.382C233.936 510.081 236.261 510.201 238.1 510.735C240.671 511.482 240.083 514.556 237.745 515.864L236.232 516.71C234.73 517.55 232.693 516.95 231.042 516.47C229.869 516.129 228.387 516.053 226.68 516.245C224.973 516.437 223.074 516.894 221.092 517.59C219.111 518.285 217.085 519.206 215.13 520.299C213.175 521.392 211.33 522.637 209.7 523.961C208.07 525.286 206.687 526.664 205.63 528.018C204.572 529.372 203.862 530.675 203.538 531.852C203.082 533.511 202.527 535.56 201.026 536.4L199.512 537.247Z" fill="url(#paint7_linear)"/>
<path d="M247.084 505.181C248.474 503.36 251.224 502.929 252.081 505.054C252.6 506.342 252.752 507.809 252.523 509.322C252.294 510.834 251.691 512.343 250.769 513.709C249.848 515.076 248.638 516.256 247.25 517.143C245.862 518.03 244.34 518.594 242.825 518.783C241.309 518.973 239.849 518.783 238.577 518.229C237.305 517.676 236.262 516.777 235.545 515.616C235.519 515.574 235.494 515.532 235.469 515.49C234.264 513.442 236.145 511.255 238.478 510.8L241.685 510.174C242.885 509.94 243.958 509.274 244.7 508.302L247.084 505.181Z" fill="#FFD747"/>
<path d="M247.084 505.181C248.474 503.36 251.224 502.929 252.081 505.054C252.6 506.342 252.752 507.809 252.523 509.322C252.294 510.834 251.691 512.343 250.769 513.709C249.848 515.076 248.638 516.256 247.25 517.143C245.862 518.03 244.34 518.594 242.825 518.783C241.309 518.973 239.849 518.783 238.577 518.229C237.305 517.676 236.262 516.777 235.545 515.616C235.519 515.574 235.494 515.532 235.469 515.49C234.264 513.442 236.145 511.255 238.478 510.8L241.685 510.174C242.885 509.94 243.958 509.274 244.7 508.302L247.084 505.181Z" fill="url(#paint8_linear)"/>
<path d="M147.949 537.247C150.286 538.554 153.213 537.446 152.504 534.864C151.996 533.017 150.881 530.974 149.223 528.85C147.564 526.726 145.395 524.564 142.838 522.486C140.281 520.409 137.387 518.457 134.32 516.742C131.254 515.027 128.076 513.583 124.967 512.492C121.859 511.4 118.881 510.684 116.203 510.382C113.525 510.081 111.2 510.201 109.361 510.735C106.789 511.482 107.378 514.556 109.715 515.864L111.229 516.71C112.73 517.55 114.768 516.95 116.419 516.47C117.592 516.129 119.074 516.053 120.781 516.245C122.488 516.437 124.387 516.894 126.368 517.59C128.35 518.285 130.376 519.206 132.331 520.299C134.286 521.392 136.131 522.637 137.761 523.961C139.391 525.286 140.774 526.664 141.831 528.018C142.888 529.372 143.599 530.675 143.923 531.852C144.378 533.511 144.934 535.56 146.435 536.4L147.949 537.247Z" fill="#FFD747"/>
<path d="M147.949 537.247C150.286 538.554 153.213 537.446 152.504 534.864C151.996 533.017 150.881 530.974 149.223 528.85C147.564 526.726 145.395 524.564 142.838 522.486C140.281 520.409 137.387 518.457 134.32 516.742C131.254 515.027 128.076 513.583 124.967 512.492C121.859 511.4 118.881 510.684 116.203 510.382C113.525 510.081 111.2 510.201 109.361 510.735C106.789 511.482 107.378 514.556 109.715 515.864L111.229 516.71C112.73 517.55 114.768 516.95 116.419 516.47C117.592 516.129 119.074 516.053 120.781 516.245C122.488 516.437 124.387 516.894 126.368 517.59C128.35 518.285 130.376 519.206 132.331 520.299C134.286 521.392 136.131 522.637 137.761 523.961C139.391 525.286 140.774 526.664 141.831 528.018C142.888 529.372 143.599 530.675 143.923 531.852C144.378 533.511 144.934 535.56 146.435 536.4L147.949 537.247Z" fill="url(#paint9_linear)"/>
<path d="M100.377 505.181C98.9864 503.36 96.2363 502.929 95.3799 505.054C94.8609 506.342 94.709 507.809 94.9382 509.322C95.1673 510.834 95.7702 512.343 96.6915 513.709C97.6128 515.076 98.823 516.256 100.211 517.143C101.599 518.03 103.121 518.594 104.636 518.783C106.151 518.973 107.612 518.783 108.884 518.229C110.156 517.676 111.199 516.777 111.916 515.616C111.942 515.574 111.967 515.532 111.992 515.49C113.197 513.442 111.315 511.255 108.983 510.8L105.776 510.174C104.576 509.94 103.503 509.274 102.76 508.302L100.377 505.181Z" fill="#FFD747"/>
<path d="M100.377 505.181C98.9864 503.36 96.2363 502.929 95.3799 505.054C94.8609 506.342 94.709 507.809 94.9382 509.322C95.1673 510.834 95.7702 512.343 96.6915 513.709C97.6128 515.076 98.823 516.256 100.211 517.143C101.599 518.03 103.121 518.594 104.636 518.783C106.151 518.973 107.612 518.783 108.884 518.229C110.156 517.676 111.199 516.777 111.916 515.616C111.942 515.574 111.967 515.532 111.992 515.49C113.197 513.442 111.315 511.255 108.983 510.8L105.776 510.174C104.576 509.94 103.503 509.274 102.76 508.302L100.377 505.181Z" fill="url(#paint10_linear)"/>
<path d="M142.461 523.927C139.699 523.927 137.398 526.244 138.461 528.792C138.884 529.807 139.44 530.803 140.125 531.772C141.884 534.259 144.462 536.519 147.712 538.423C150.962 540.326 154.82 541.836 159.067 542.866C163.313 543.897 167.864 544.427 172.461 544.427C177.057 544.427 181.608 543.897 185.855 542.866C190.101 541.836 193.959 540.326 197.209 538.423C200.46 536.519 203.038 534.259 204.797 531.772C205.482 530.803 206.038 529.807 206.461 528.792C207.524 526.244 205.222 523.927 202.461 523.927H201.92C199.158 523.927 196.96 526.3 195.541 528.669C195.392 528.918 195.231 529.165 195.058 529.409C193.829 531.147 192.027 532.726 189.756 534.057C187.485 535.387 184.788 536.442 181.821 537.162C178.853 537.882 175.673 538.253 172.461 538.253C169.249 538.253 166.068 537.882 163.101 537.162C160.133 536.442 157.437 535.387 155.166 534.057C152.895 532.726 151.093 531.147 149.864 529.409C149.691 529.165 149.53 528.918 149.381 528.669C147.962 526.3 145.763 523.927 143.002 523.927H142.461Z" fill="#FFD747"/>
<path d="M142.461 523.927C139.699 523.927 137.398 526.244 138.461 528.792C138.884 529.807 139.44 530.803 140.125 531.772C141.884 534.259 144.462 536.519 147.712 538.423C150.962 540.326 154.82 541.836 159.067 542.866C163.313 543.897 167.864 544.427 172.461 544.427C177.057 544.427 181.608 543.897 185.855 542.866C190.101 541.836 193.959 540.326 197.209 538.423C200.46 536.519 203.038 534.259 204.797 531.772C205.482 530.803 206.038 529.807 206.461 528.792C207.524 526.244 205.222 523.927 202.461 523.927H201.92C199.158 523.927 196.96 526.3 195.541 528.669C195.392 528.918 195.231 529.165 195.058 529.409C193.829 531.147 192.027 532.726 189.756 534.057C187.485 535.387 184.788 536.442 181.821 537.162C178.853 537.882 175.673 538.253 172.461 538.253C169.249 538.253 166.068 537.882 163.101 537.162C160.133 536.442 157.437 535.387 155.166 534.057C152.895 532.726 151.093 531.147 149.864 529.409C149.691 529.165 149.53 528.918 149.381 528.669C147.962 526.3 145.763 523.927 143.002 523.927H142.461Z" fill="url(#paint11_linear)"/>
</g>
<defs>
<filter id="filter0_d" x="0" y="7" width="349" height="544" filterUnits="userSpaceOnUse" color-interpolation-filters="sRGB">
<feFlood flood-opacity="0" result="BackgroundImageFix"/>
<feColorMatrix in="SourceAlpha" type="matrix" values="0 0 0 0 0 0 0 0 0 0 0 0 0 0 0 0 0 0 127 0"/>
<feOffset dy="4"/>
<feGaussianBlur stdDeviation="2"/>
<feColorMatrix type="matrix" values="0 0 0 0 0 0 0 0 0 0 0 0 0 0 0 0 0 0 0.25 0"/>
<feBlend mode="normal" in2="BackgroundImageFix" result="effect1_dropShadow"/>
<feBlend mode="normal" in="SourceGraphic" in2="effect1_dropShadow" result="shape"/>
</filter>
<filter id="filter1_i" x="14" y="17" width="321" height="516" filterUnits="userSpaceOnUse" color-interpolation-filters="sRGB">
<feFlood flood-opacity="0" result="BackgroundImageFix"/>
<feBlend mode="normal" in="SourceGraphic" in2="BackgroundImageFix" result="shape"/>
<feColorMatrix in="SourceAlpha" type="matrix" values="0 0 0 0 0 0 0 0 0 0 0 0 0 0 0 0 0 0 127 0" result="hardAlpha"/>
<feMorphology radius="5" operator="erode" in="SourceAlpha" result="effect1_innerShadow"/>
<feOffset/>
<feGaussianBlur stdDeviation="5"/>
<feComposite in2="hardAlpha" operator="arithmetic" k2="-1" k3="1"/>
<feColorMatrix type="matrix" values="0 0 0 0 0 0 0 0 0 0 0 0 0 0 0 0 0 0 0.25 0"/>
<feBlend mode="normal" in2="shape" result="effect1_innerShadow"/>
</filter>
<filter id="filter2_dii" x="91.8345" y="3" width="165.792" height="50.7964" filterUnits="userSpaceOnUse" color-interpolation-filters="sRGB">
<feFlood flood-opacity="0" result="BackgroundImageFix"/>
<feColorMatrix in="SourceAlpha" type="matrix" values="0 0 0 0 0 0 0 0 0 0 0 0 0 0 0 0 0 0 127 0"/>
<feOffset dy="4"/>
<feGaussianBlur stdDeviation="2"/>
<feColorMatrix type="matrix" values="0 0 0 0 0 0 0 0 0 0 0 0 0 0 0 0 0 0 0.25 0"/>
<feBlend mode="normal" in2="BackgroundImageFix" result="effect1_dropShadow"/>
<feBlend mode="normal" in="SourceGraphic" in2="effect1_dropShadow" result="shape"/>
<feColorMatrix in="SourceAlpha" type="matrix" values="0 0 0 0 0 0 0 0 0 0 0 0 0 0 0 0 0 0 127 0" result="hardAlpha"/>
<feOffset dy="2"/>
<feGaussianBlur stdDeviation="2"/>
<feComposite in2="hardAlpha" operator="arithmetic" k2="-1" k3="1"/>
<feColorMatrix type="matrix" values="0 0 0 0 0 0 0 0 0 0 0 0 0 0 0 0 0 0 0.1 0"/>
<feBlend mode="normal" in2="shape" result="effect2_innerShadow"/>
<feColorMatrix in="SourceAlpha" type="matrix" values="0 0 0 0 0 0 0 0 0 0 0 0 0 0 0 0 0 0 127 0" result="hardAlpha"/>
<feOffset dy="-2"/>
<feGaussianBlur stdDeviation="2"/>
<feComposite in2="hardAlpha" operator="arithmetic" k2="-1" k3="1"/>
<feColorMatrix type="matrix" values="0 0 0 0 0 0 0 0 0 0 0 0 0 0 0 0 0 0 0.1 0"/>
<feBlend mode="normal" in2="effect2_innerShadow" result="effect3_innerShadow"/>
</filter>
<filter id="filter3_dii" x="90.8345" y="501.63" width="165.792" height="50.7964" filterUnits="userSpaceOnUse" color-interpolation-filters="sRGB">
<feFlood flood-opacity="0" result="BackgroundImageFix"/>
<feColorMatrix in="SourceAlpha" type="matrix" values="0 0 0 0 0 0 0 0 0 0 0 0 0 0 0 0 0 0 127 0"/>
<feOffset dy="4"/>
<feGaussianBlur stdDeviation="2"/>
<feColorMatrix type="matrix" values="0 0 0 0 0 0 0 0 0 0 0 0 0 0 0 0 0 0 0.25 0"/>
<feBlend mode="normal" in2="BackgroundImageFix" result="effect1_dropShadow"/>
<feBlend mode="normal" in="SourceGraphic" in2="effect1_dropShadow" result="shape"/>
<feColorMatrix in="SourceAlpha" type="matrix" values="0 0 0 0 0 0 0 0 0 0 0 0 0 0 0 0 0 0 127 0" result="hardAlpha"/>
<feOffset dy="2"/>
<feGaussianBlur stdDeviation="2"/>
<feComposite in2="hardAlpha" operator="arithmetic" k2="-1" k3="1"/>
<feColorMatrix type="matrix" values="0 0 0 0 0 0 0 0 0 0 0 0 0 0 0 0 0 0 0.1 0"/>
<feBlend mode="normal" in2="shape" result="effect2_innerShadow"/>
<feColorMatrix in="SourceAlpha" type="matrix" values="0 0 0 0 0 0 0 0 0 0 0 0 0 0 0 0 0 0 127 0" result="hardAlpha"/>
<feOffset dy="-2"/>
<feGaussianBlur stdDeviation="2"/>
<feComposite in2="hardAlpha" operator="arithmetic" k2="-1" k3="1"/>
<feColorMatrix type="matrix" values="0 0 0 0 0 0 0 0 0 0 0 0 0 0 0 0 0 0 0.1 0"/>
<feBlend mode="normal" in2="effect2_innerShadow" result="effect3_innerShadow"/>
</filter>
<linearGradient id="paint0_linear" x1="284" y1="78" x2="29" y2="355" gradientUnits="userSpaceOnUse">
<stop stop-color="#FFD747" stop-opacity="0.74"/>
<stop offset="0.505208" stop-color="white" stop-opacity="0.795573"/>
<stop offset="1" stop-color="#FFD747" stop-opacity="0.85"/>
</linearGradient>
<radialGradient id="paint1_diamond" cx="0" cy="0" r="1" gradientUnits="userSpaceOnUse" gradientTransform="translate(144 191) rotate(72.5528) scale(440.254 273.879)">
<stop stop-color="white"/>
<stop offset="1" stop-color="white" stop-opacity="0"/>
</radialGradient>
<linearGradient id="paint2_linear" x1="124.344" y1="13.0584" x2="135.32" y2="32.6849" gradientUnits="userSpaceOnUse">
<stop stop-color="#FFD747"/>
<stop offset="0.46875" stop-color="white" stop-opacity="0.2"/>
<stop offset="1" stop-color="#FFD747" stop-opacity="0.74"/>
</linearGradient>
<linearGradient id="paint3_linear" x1="110.576" y1="45.3853" x2="99.2493" y2="33.8471" gradientUnits="userSpaceOnUse">
<stop stop-color="#FFD747"/>
<stop offset="0.46875" stop-color="white" stop-opacity="0.2"/>
<stop offset="1" stop-color="#FFD747" stop-opacity="0.74"/>
</linearGradient>
<linearGradient id="paint4_linear" x1="225.117" y1="13.0584" x2="214.14" y2="32.6849" gradientUnits="userSpaceOnUse">
<stop stop-color="#FFD747"/>
<stop offset="0.46875" stop-color="white" stop-opacity="0.2"/>
<stop offset="1" stop-color="#FFD747" stop-opacity="0.74"/>
</linearGradient>
<linearGradient id="paint5_linear" x1="238.885" y1="45.3853" x2="250.212" y2="33.8471" gradientUnits="userSpaceOnUse">
<stop stop-color="#FFD747"/>
<stop offset="0.46875" stop-color="white" stop-opacity="0.2"/>
<stop offset="1" stop-color="#FFD747" stop-opacity="0.74"/>
</linearGradient>
<linearGradient id="paint6_linear" x1="176" y1="5" x2="176" y2="46" gradientUnits="userSpaceOnUse">
<stop stop-color="#FFD747"/>
<stop offset="0.46875" stop-color="white" stop-opacity="0.2"/>
<stop offset="1" stop-color="#FFD747" stop-opacity="0.74"/>
</linearGradient>
<linearGradient id="paint7_linear" x1="224.117" y1="536.368" x2="213.14" y2="516.742" gradientUnits="userSpaceOnUse">
<stop stop-color="#FFD747"/>
<stop offset="0.46875" stop-color="white" stop-opacity="0.2"/>
<stop offset="1" stop-color="#FFD747" stop-opacity="0.74"/>
</linearGradient>
<linearGradient id="paint8_linear" x1="237.885" y1="504.041" x2="249.212" y2="515.58" gradientUnits="userSpaceOnUse">
<stop stop-color="#FFD747"/>
<stop offset="0.46875" stop-color="white" stop-opacity="0.2"/>
<stop offset="1" stop-color="#FFD747" stop-opacity="0.74"/>
</linearGradient>
<linearGradient id="paint9_linear" x1="123.344" y1="536.368" x2="134.32" y2="516.742" gradientUnits="userSpaceOnUse">
<stop stop-color="#FFD747"/>
<stop offset="0.46875" stop-color="white" stop-opacity="0.2"/>
<stop offset="1" stop-color="#FFD747" stop-opacity="0.74"/>
</linearGradient>
<linearGradient id="paint10_linear" x1="109.576" y1="504.041" x2="98.2493" y2="515.58" gradientUnits="userSpaceOnUse">
<stop stop-color="#FFD747"/>
<stop offset="0.46875" stop-color="white" stop-opacity="0.2"/>
<stop offset="1" stop-color="#FFD747" stop-opacity="0.74"/>
</linearGradient>
<linearGradient id="paint11_linear" x1="172.461" y1="544.427" x2="172.461" y2="503.427" gradientUnits="userSpaceOnUse">
<stop stop-color="#FFD747"/>
<stop offset="0.46875" stop-color="white" stop-opacity="0.2"/>
<stop offset="1" stop-color="#FFD747" stop-opacity="0.74"/>
</linearGradient>
</defs>
</svg>
